<svg width="82" height="82" viewBox="0 0 82 82" fill="none" xmlns="http://www.w3.org/2000/svg">
<circle cx="41" cy="41" r="41" fill="#00BEB4"/>
<path fill-rule="evenodd" clip-rule="evenodd" d="M42.9655 18.9312H39.6318C39.1638 19.0264 38.6926 19.1114 38.2213 19.1963C37.1902 19.3822 36.1591 19.5681 35.1619 19.8617C26.5387 22.402 20.6387 29.5885 19.7636 38.5284C19.3392 42.8481 20.2338 46.8968 22.3072 50.6876C22.6304 51.2786 22.712 51.7586 22.4835 52.4083C21.3701 55.5722 20.3056 58.7524 19.2412 61.9327C19.1546 62.1858 19.1157 62.4548 19.0768 62.7243C19.06 62.8406 19.0431 62.957 19.0225 63.0722C20.0211 62.7467 21.0208 62.4246 22.0206 62.1024C24.4206 61.3292 26.8208 60.5558 29.2063 59.7352C30.2904 59.363 31.185 59.4349 32.2429 59.9116C44.6732 65.508 58.7034 58.8994 62.2623 45.7965C62.4892 44.9608 62.6311 44.1035 62.773 43.2459C62.8374 42.8569 62.9018 42.4679 62.9741 42.0808V38.7471C62.8665 38.2399 62.7763 37.7266 62.6861 37.2134C62.4888 36.0911 62.2916 34.969 61.913 33.9115C58.8078 25.2459 52.6662 20.2796 43.5141 19.0846C43.3876 19.0691 43.2642 19.0279 43.1407 18.9867C43.0824 18.9673 43.0241 18.9479 42.9655 18.9312ZM25.9323 57.2334C25.388 57.405 24.8345 57.5796 24.2689 57.7596C24.4502 57.2223 24.628 56.6999 24.8022 56.1883C25.3341 54.6262 25.8317 53.1647 26.2867 51.6865C26.401 51.3208 26.3325 50.7755 26.1268 50.4555C19.1492 39.5827 24.824 25.6276 37.4142 22.7576C47.4316 20.4753 57.6579 27.3483 59.2676 37.4473C60.861 47.4451 54.1479 56.7376 44.1502 58.3114C39.8761 58.984 35.8372 58.1906 32.0986 56.003C31.5077 55.6569 31.0081 55.5818 30.3649 55.8005C28.9176 56.2918 27.4615 56.7511 25.9323 57.2334Z" fill="#FFECE3"/>
<path d="M30.5742 35.707C30.7375 34.2084 31.2566 32.9873 32.0826 31.8347C32.9413 30.63 34.1265 30.5385 35.3933 30.7344C35.6709 30.7769 35.9908 31.1262 36.1214 31.4136C36.732 32.7457 37.385 34.0713 37.7964 35.4687C37.9498 35.9878 37.6331 36.7943 37.2805 37.2873C36.0692 38.9655 36.03 38.9328 37.2772 40.6535C38.8705 42.8508 40.934 44.4343 43.4383 45.4759C44.0945 45.7468 44.5484 45.662 44.9728 45.1134C45.3907 44.5714 45.8772 44.0784 46.2657 43.5201C46.6543 42.9585 47.1179 42.8443 47.6958 43.1153C49.054 43.7519 50.4253 44.3625 51.7378 45.0775C52.035 45.2408 52.2896 45.8056 52.27 46.1713C52.1623 48.2739 50.8628 49.8411 48.7406 50.2754C47.7513 50.4778 46.6477 50.5105 45.6682 50.2917C39.2003 48.8453 34.8252 44.7086 31.6974 39.0961C31.126 38.0709 30.9366 36.84 30.5742 35.707Z" fill="#FFECE3"/>
</svg>
