<svg width="27" height="26" viewBox="0 0 27 26" fill="none" xmlns="http://www.w3.org/2000/svg">
<path fill-rule="evenodd" clip-rule="evenodd" d="M1.46786 3.84932C0.699463 5.35738 0.699463 7.33154 0.699463 11.2799V14.5698C0.699463 18.5181 0.699463 20.4923 1.46786 22.0003C2.14375 23.3269 3.22225 24.4054 4.54878 25.0812C6.05684 25.8497 8.03101 25.8497 11.9793 25.8497H15.2693C19.2176 25.8497 21.1918 25.8497 22.6998 25.0812C24.0263 24.4054 25.1048 23.3269 25.7807 22.0003C26.5491 20.4923 26.5491 18.5181 26.5491 14.5698V11.2799C26.5491 7.33154 26.5491 5.35738 25.7807 3.84932C25.1048 2.52279 24.0263 1.44429 22.6998 0.768393C21.1918 0 19.2176 0 15.2693 0H11.9793C8.03101 0 6.05684 0 4.54878 0.768393C3.22225 1.44429 2.14375 2.52279 1.46786 3.84932ZM15.2693 2.34997H11.9793C9.96638 2.34997 8.59801 2.3518 7.54032 2.43821C6.51005 2.52239 5.98318 2.67496 5.61565 2.86223C4.7313 3.31284 4.0123 4.03183 3.56169 4.91618C3.37442 5.28372 3.22185 5.81058 3.13767 6.84086C3.05127 7.89854 3.04943 9.26692 3.04943 11.2799V14.5698C3.04943 16.5828 3.05127 17.9511 3.13767 19.0088C3.22185 20.0391 3.37442 20.566 3.56169 20.9335C4.0123 21.8178 4.7313 22.5368 5.61565 22.9874C5.98318 23.1747 6.51005 23.3273 7.54032 23.4115C8.59801 23.4978 9.96638 23.4997 11.9793 23.4997H15.2693C17.2823 23.4997 18.6505 23.4978 19.7083 23.4115C20.7386 23.3273 21.2655 23.1747 21.633 22.9874C22.5173 22.5368 23.2363 21.8178 23.6869 20.9335C23.8742 20.566 24.0268 20.0391 24.1109 19.0088C24.1973 17.9511 24.1992 16.5828 24.1992 14.5698V11.2799C24.1992 9.26692 24.1973 7.89854 24.1109 6.84086C24.0268 5.81058 23.8742 5.28372 23.6869 4.91618C23.2363 4.03183 22.5173 3.31284 21.633 2.86223C21.2655 2.67496 20.7386 2.52239 19.7083 2.43821C18.6505 2.3518 17.2823 2.34997 15.2693 2.34997Z" fill="#00BEB4"/>
<path fill-rule="evenodd" clip-rule="evenodd" d="M14.9853 19.2031V13.2206H16.8016L17.0982 10.5617H14.9853V9.26669C14.9853 8.58203 15.0028 7.90285 15.9595 7.90285H16.9285V6.00184C16.9285 5.97326 16.0962 5.90869 15.2541 5.90869C13.4955 5.90869 12.3943 7.01026 12.3943 9.033V10.5617H10.451V13.2206H12.3943V19.2031H14.9853Z" fill="#00BEB4"/>
</svg>
