<svg width="27" height="26" viewBox="0 0 27 26" fill="none" xmlns="http://www.w3.org/2000/svg">
<path fill-rule="evenodd" clip-rule="evenodd" d="M1.61812 3.84932C0.849731 5.35738 0.849731 7.33154 0.849731 11.2799V14.5698C0.849731 18.5181 0.849731 20.4923 1.61812 22.0003C2.29402 23.3269 3.37252 24.4054 4.69905 25.0812C6.20711 25.8497 8.18127 25.8497 12.1296 25.8497H15.4195C19.3678 25.8497 21.3421 25.8497 22.85 25.0812C24.1766 24.4054 25.2551 23.3269 25.931 22.0003C26.6994 20.4923 26.6994 18.5181 26.6994 14.5698V11.2799C26.6994 7.33154 26.6994 5.35738 25.931 3.84932C25.2551 2.52279 24.1766 1.44429 22.85 0.768393C21.3421 0 19.3678 0 15.4195 0H12.1296C8.18127 0 6.20711 0 4.69905 0.768393C3.37252 1.44429 2.29402 2.52279 1.61812 3.84932ZM15.4195 2.34997H12.1296C10.1167 2.34997 8.74827 2.3518 7.69059 2.43821C6.66031 2.52239 6.13345 2.67496 5.76592 2.86223C4.88156 3.31284 4.16257 4.03183 3.71196 4.91618C3.52469 5.28372 3.37212 5.81058 3.28794 6.84086C3.20153 7.89854 3.1997 9.26692 3.1997 11.2799V14.5698C3.1997 16.5828 3.20153 17.9511 3.28794 19.0088C3.37212 20.0391 3.52469 20.566 3.71196 20.9335C4.16257 21.8178 4.88156 22.5368 5.76592 22.9874C6.13345 23.1747 6.66031 23.3273 7.69059 23.4115C8.74827 23.4978 10.1167 23.4997 12.1296 23.4997H15.4195C17.4325 23.4997 18.8008 23.4978 19.8585 23.4115C20.8889 23.3273 21.4157 23.1747 21.7833 22.9874C22.6676 22.5368 23.3865 21.8178 23.8371 20.9335C24.0244 20.566 24.1771 20.0391 24.2612 19.0088C24.3476 17.9511 24.3494 16.5828 24.3494 14.5698V11.2799C24.3494 9.26692 24.3476 7.89854 24.2612 6.84086C24.1771 5.81058 24.0244 5.28372 23.8371 4.91618C23.3865 4.03183 22.6676 3.31284 21.7833 2.86223C21.4157 2.67496 20.8889 2.52239 19.8585 2.43821C18.8008 2.3518 17.4325 2.34997 15.4195 2.34997Z" fill="#00BEB4"/>
<path d="M14.3132 5.91983C15.0426 5.90869 15.7666 5.91448 16.4902 5.90869C16.5143 6.81361 16.8814 7.62809 17.4655 8.23137L17.4646 8.23048C18.0933 8.79678 18.9114 9.16392 19.8132 9.22629L19.8256 9.22718V11.471C18.9737 11.4496 18.1726 11.2531 17.4504 10.9154L17.4869 10.9305C17.1376 10.7626 16.8422 10.5901 16.5615 10.3977L16.5847 10.4128C16.5793 12.0386 16.59 13.6645 16.5735 15.2845C16.5276 16.1101 16.2532 16.8631 15.813 17.4918L15.8219 17.478C15.0858 18.5322 13.8935 19.2241 12.5377 19.2651H12.5315C12.4766 19.2678 12.412 19.2691 12.347 19.2691C11.5762 19.2691 10.8557 19.0543 10.2417 18.6814L10.2596 18.6917C9.14212 18.0193 8.37131 16.8689 8.22873 15.5309L8.22695 15.5126C8.21581 15.2342 8.21046 14.9557 8.2216 14.683C8.43992 12.5537 10.2239 10.9065 12.3924 10.9065C12.6362 10.9065 12.875 10.9274 13.1071 10.9671L13.0822 10.9635C13.0933 11.7873 13.0599 12.6116 13.0599 13.4355C12.8714 13.3673 12.654 13.3276 12.4272 13.3276C11.5949 13.3276 10.8869 13.8596 10.6249 14.6024L10.6209 14.6157C10.5617 14.806 10.5273 15.0247 10.5273 15.2511C10.5273 15.3429 10.5331 15.4338 10.5438 15.5229L10.5429 15.5122C10.6909 16.4238 11.4724 17.1117 12.4147 17.1117C12.4419 17.1117 12.4686 17.1113 12.4954 17.1099H12.4914C13.1432 17.0903 13.7091 16.7397 14.029 16.2215L14.0334 16.2135C14.1524 16.0477 14.2339 15.8472 14.2611 15.6294L14.2615 15.6231C14.3172 14.6264 14.295 13.6355 14.3003 12.6388C14.3057 10.395 14.295 8.15652 14.3114 5.91849L14.3132 5.91983Z" fill="#00BEB4"/>
</svg>
