<svg width="25" height="24" viewBox="0 0 25 24" fill="none" xmlns="http://www.w3.org/2000/svg">
<path d="M7.8162 20.6C9.3162 21.5 11.1162 22 12.9162 22C18.4162 22 22.9162 17.5 22.9162 12C22.9162 6.5 18.4162 2 12.9162 2C7.4162 2 2.9162 6.5 2.9162 12C2.9162 13.8 3.4162 15.5 4.2162 17L3.35664 20.306C3.16192 21.0549 3.85512 21.7317 4.59919 21.5191L7.8162 20.6Z" stroke="#00BEB4" stroke-width="1.5" stroke-miterlimit="10" stroke-linecap="round" stroke-linejoin="round"/>
<path d="M17.4162 14.8485C17.4162 15.0105 17.3801 15.177 17.3035 15.339C17.2269 15.501 17.1278 15.654 16.9971 15.798C16.7762 16.041 16.5329 16.2165 16.258 16.329C15.9876 16.4415 15.6946 16.5 15.3791 16.5C14.9195 16.5 14.4282 16.392 13.9099 16.1715C13.3917 15.951 12.8734 15.654 12.3596 15.2805C11.8413 14.9025 11.3501 14.484 10.8814 14.0205C10.4172 13.5525 9.99807 13.062 9.62401 12.549C9.25446 12.036 8.95701 11.523 8.74069 11.0145C8.52436 10.5015 8.4162 10.011 8.4162 9.543C8.4162 9.237 8.47028 8.9445 8.57844 8.6745C8.6866 8.4 8.85786 8.148 9.09672 7.923C9.38515 7.6395 9.70063 7.5 10.0341 7.5C10.1603 7.5 10.2865 7.527 10.3992 7.581C10.5163 7.635 10.62 7.716 10.7011 7.833L11.7467 9.3045C11.8278 9.417 11.8864 9.5205 11.927 9.6195C11.9675 9.714 11.9901 9.8085 11.9901 9.894C11.9901 10.002 11.9585 10.11 11.8954 10.2135C11.8368 10.317 11.7512 10.425 11.643 10.533L11.3005 10.8885C11.251 10.938 11.2284 10.9965 11.2284 11.0685C11.2284 11.1045 11.2329 11.136 11.2419 11.172C11.2555 11.208 11.269 11.235 11.278 11.262C11.3591 11.4105 11.4988 11.604 11.6971 11.838C11.8999 12.072 12.1162 12.3105 12.3506 12.549C12.594 12.7875 12.8283 13.008 13.0672 13.2105C13.3015 13.4085 13.4953 13.5435 13.6485 13.6245C13.6711 13.6335 13.6981 13.647 13.7297 13.6605C13.7657 13.674 13.8018 13.6785 13.8423 13.6785C13.919 13.6785 13.9775 13.6515 14.0271 13.602L14.3696 13.2645C14.4823 13.152 14.5905 13.0665 14.6941 13.0125C14.7978 12.9495 14.9014 12.918 15.0141 12.918C15.0997 12.918 15.1899 12.936 15.289 12.9765C15.3882 13.017 15.4918 13.0755 15.6045 13.152L17.0962 14.2095C17.2134 14.2905 17.2945 14.385 17.3441 14.4975C17.3892 14.61 17.4162 14.7225 17.4162 14.8485Z" stroke="#00BEB4" stroke-width="1.5" stroke-miterlimit="10"/>
</svg>
