<svg width="27" height="21" viewBox="0 0 27 21" fill="none" xmlns="http://www.w3.org/2000/svg">
<path d="M14.7734 12.7422C14.7734 11.6224 14.9167 10.5026 15.2031 9.38281C15.5156 8.23698 15.9974 7.15625 16.6484 6.14062C17.3255 5.09896 18.1849 4.14844 19.2266 3.28906C20.2682 2.40365 21.5312 1.66146 23.0156 1.0625C23.1458 1.01042 23.263 0.971354 23.3672 0.945312C23.4714 0.919271 23.5885 0.90625 23.7188 0.90625C24.3177 0.90625 24.8125 1.1276 25.2031 1.57031C25.5938 2.01302 25.7891 2.49479 25.7891 3.01562C25.7891 3.40625 25.6589 3.78385 25.3984 4.14844C25.1641 4.51302 24.8385 4.77344 24.4219 4.92969C23.25 5.3724 22.3125 5.91927 21.6094 6.57031C20.9062 7.22135 20.3333 7.92448 19.8906 8.67969C20.099 8.6276 20.2812 8.60156 20.4375 8.60156C20.5938 8.60156 20.776 8.60156 20.9844 8.60156C21.7917 8.60156 22.5599 8.75781 23.2891 9.07031C24.0182 9.38281 24.6562 9.8125 25.2031 10.3594C25.75 10.9062 26.1797 11.5443 26.4922 12.2734C26.8307 13.0026 27 13.7839 27 14.6172C27 15.4505 26.8307 16.2318 26.4922 16.9609C26.1797 17.6641 25.75 18.276 25.2031 18.7969C24.6562 19.3177 24.0182 19.7344 23.2891 20.0469C22.5599 20.3594 21.7917 20.5156 20.9844 20.5156C19.9167 20.5156 18.9922 20.3073 18.2109 19.8906C17.4557 19.474 16.8177 18.9141 16.2969 18.2109C15.776 17.4818 15.3854 16.6484 15.125 15.7109C14.8906 14.7734 14.7734 13.7839 14.7734 12.7422ZM0.359375 12.7422C0.359375 11.6224 0.502604 10.5026 0.789062 9.38281C1.10156 8.23698 1.58333 7.15625 2.23438 6.14062C2.91146 5.09896 3.77083 4.14844 4.8125 3.28906C5.85417 2.40365 7.11719 1.66146 8.60156 1.0625C8.73177 1.01042 8.84896 0.971354 8.95312 0.945312C9.05729 0.919271 9.17448 0.90625 9.30469 0.90625C9.90365 0.90625 10.3984 1.1276 10.7891 1.57031C11.2057 2.01302 11.4141 2.49479 11.4141 3.01562C11.4141 3.40625 11.2839 3.78385 11.0234 4.14844C10.763 4.51302 10.4375 4.77344 10.0469 4.92969C8.875 5.3724 7.92448 5.91927 7.19531 6.57031C6.49219 7.22135 5.91927 7.92448 5.47656 8.67969C5.6849 8.6276 5.86719 8.60156 6.02344 8.60156C6.20573 8.60156 6.40104 8.60156 6.60938 8.60156C7.41667 8.60156 8.1849 8.75781 8.91406 9.07031C9.64323 9.38281 10.2812 9.8125 10.8281 10.3594C11.375 10.9062 11.8047 11.5443 12.1172 12.2734C12.4297 13.0026 12.5859 13.7839 12.5859 14.6172C12.5859 15.4505 12.4297 16.2318 12.1172 16.9609C11.8047 17.6641 11.375 18.276 10.8281 18.7969C10.2812 19.3177 9.64323 19.7344 8.91406 20.0469C8.1849 20.3594 7.41667 20.5156 6.60938 20.5156C5.54167 20.5156 4.61719 20.3073 3.83594 19.8906C3.05469 19.474 2.40365 18.9141 1.88281 18.2109C1.36198 17.4818 0.971354 16.6484 0.710938 15.7109C0.476562 14.7734 0.359375 13.7839 0.359375 12.7422Z" fill="#00BEB4"/>
</svg>
